<?xml version="1.0" encoding="utf-8"?>
<!-- Generator: Adobe Illustrator 27.1.1, SVG Export Plug-In . SVG Version: 6.00 Build 0)  -->
<svg version="1.1" id="Layer_1" xmlns="http://www.w3.org/2000/svg" xmlns:xlink="http://www.w3.org/1999/xlink" x="0px" y="0px"
	 viewBox="0 0 59.9 34.1" style="enable-background:new 0 0 59.9 34.1;" xml:space="preserve">
<style type="text/css">
	.st0{fill:#510026;}
</style>
<g>
	<path class="st0" d="M30.2,32.2c-1.2,0-2.5-0.6-3.5-1.8L2.8,4.1C2.4,3.7,2.4,3,2.8,2.7c0.4-0.4,1-0.3,1.4,0.1L28.1,29
		c0.5,0.5,1.2,1.1,2.1,1.1c0.9,0,1.6-0.7,2-1.2l23-26.2c0.4-0.4,1-0.5,1.4-0.1c0.4,0.4,0.5,1,0.1,1.4l-23,26.2
		C32.7,31.5,31.5,32.1,30.2,32.2C30.2,32.2,30.2,32.2,30.2,32.2z"/>
</g>
</svg>
